# xmcd
#
# Track frame offsets:
#	150
#	12431
#	23778
#	37206
#	52522
#	68321
#	82711
#	93466
#	109428
#	121026
#
# Disc length: 1795 seconds
#
# Revision: 6
# Processed by: cddbd v1.5.2PL0 Copyright (c) Steve Scherf et al.
# Submitted via: EZCDAudioConverter 1.2.3.1
#
DISCID=6c07010a
DTITLE=Blues After Hours - My Man, My Woman Blues
DYEAR=2000
DGENRE=Blues
TTITLE0=Ray Charles - Honey, Honey
TTITLE1=Ray Charles - She's On The Ball
TTITLE2=Billie Holiday - My Man
TTITLE3=Billie Holiday - Lover Man
TTITLE4=Memphis Slim - Three Women Blues
TTITLE5=John Lee Hooker - Same Old Story
TTITLE6=Billie Holliday - Maudie
TTITLE7=Billie Holiday - You've Changed
TTITLE8=Ray Charles - Tell Me Baby
TTITLE9=Ray Charles - This Love Of Mine
EXTD=
EXTT0=
EXTT1=
EXTT2=
EXTT3=
EXTT4=
EXTT5=
EXTT6=
EXTT7=
EXTT8=
EXTT9=
PLAYORDER=
